<?xml version="1.0" encoding="UTF-8"?>
<svg width="700pt" height="700pt" version="1.1" viewBox="0 0 700 700" xmlns="http://www.w3.org/2000/svg" xmlns:xlink="http://www.w3.org/1999/xlink">
 <defs>
  <symbol id="v" overflow="visible">
   <path d="m3.6562-0.21875c-0.1875 0.09375-0.38672 0.16797-0.59375 0.21875-0.19922 0.050781-0.40625 0.078125-0.625 0.078125-0.66797 0-1.1992-0.17969-1.5938-0.54688-0.38672-0.375-0.57812-0.87891-0.57812-1.5156 0-0.64453 0.19141-1.1484 0.57812-1.5156 0.39453-0.375 0.92578-0.5625 1.5938-0.5625 0.21875 0 0.42578 0.027344 0.625 0.078125 0.20703 0.054687 0.40625 0.125 0.59375 0.21875v0.82812c-0.1875-0.125-0.375-0.21875-0.5625-0.28125-0.17969-0.0625-0.37109-0.09375-0.57812-0.09375-0.36719 0-0.65625 0.12109-0.875 0.35938-0.21094 0.23047-0.3125 0.55469-0.3125 0.96875 0 0.40625 0.10156 0.73047 0.3125 0.96875 0.21875 0.23047 0.50781 0.34375 0.875 0.34375 0.20703 0 0.39844-0.023437 0.57812-0.078125 0.1875-0.0625 0.375-0.16016 0.5625-0.29688z"/>
  </symbol>
  <symbol id="a" overflow="visible">
   <path d="m2.6875-2.1719c-0.085938-0.039063-0.16797-0.070313-0.25-0.09375-0.085938-0.019531-0.16797-0.03125-0.25-0.03125-0.25 0-0.44531 0.085937-0.57812 0.25-0.125 0.15625-0.1875 0.38281-0.1875 0.67188v1.375h-0.96875v-2.9844h0.96875v0.48438c0.11328-0.19531 0.25-0.33594 0.40625-0.42188 0.16406-0.09375 0.35938-0.14062 0.57812-0.14062h0.10938c0.039063 0 0.09375 0.007812 0.15625 0.015625z"/>
  </symbol>
  <symbol id="b" overflow="visible">
   <path d="m3.4375-1.5v0.26562h-2.2344c0.03125 0.23047 0.11328 0.40234 0.25 0.51562 0.13281 0.10547 0.32812 0.15625 0.57812 0.15625 0.20703 0 0.41406-0.023438 0.625-0.078125 0.20703-0.0625 0.42188-0.15625 0.64062-0.28125v0.73438c-0.21875 0.09375-0.44531 0.16406-0.67188 0.20312-0.23047 0.039062-0.45312 0.0625-0.67188 0.0625-0.54297 0-0.96484-0.13281-1.2656-0.40625-0.30469-0.28125-0.45312-0.67188-0.45312-1.1719 0-0.47656 0.14453-0.85938 0.4375-1.1406 0.30078-0.28125 0.70703-0.42188 1.2188-0.42188 0.46875 0 0.84375 0.14062 1.125 0.42188s0.42188 0.66406 0.42188 1.1406zm-0.96875-0.32812c0-0.17578-0.058594-0.31641-0.17188-0.42188-0.10547-0.11328-0.24219-0.17188-0.40625-0.17188-0.1875 0-0.33984 0.054687-0.45312 0.15625-0.11719 0.10547-0.1875 0.25-0.21875 0.4375z"/>
  </symbol>
  <symbol id="f" overflow="visible">
   <path d="m1.7969-1.3438c-0.19922 0-0.35156 0.039062-0.45312 0.10938-0.09375 0.0625-0.14062 0.16406-0.14062 0.29688 0 0.11719 0.035156 0.21094 0.10938 0.28125 0.082031 0.0625 0.19531 0.09375 0.34375 0.09375 0.17578 0 0.32812-0.0625 0.45312-0.1875s0.1875-0.28516 0.1875-0.48438v-0.10938zm1.4688-0.35938v1.7031h-0.96875v-0.4375c-0.125 0.17969-0.27344 0.30859-0.4375 0.39062-0.15625 0.082031-0.35156 0.125-0.57812 0.125-0.3125 0-0.57031-0.085938-0.76562-0.26562-0.1875-0.1875-0.28125-0.42188-0.28125-0.70312 0-0.35156 0.11719-0.61328 0.35938-0.78125 0.23828-0.16406 0.61719-0.25 1.1406-0.25h0.5625v-0.0625c0-0.15625-0.0625-0.26562-0.1875-0.32812-0.11719-0.070312-0.29688-0.10938-0.54688-0.10938-0.21094 0-0.40234 0.023437-0.57812 0.0625-0.17969 0.042969-0.33984 0.10156-0.48438 0.17188v-0.71875c0.19531-0.050781 0.39844-0.085938 0.60938-0.10938 0.20703-0.03125 0.41406-0.046875 0.625-0.046875 0.53906 0 0.92969 0.10938 1.1719 0.32812 0.23828 0.21094 0.35938 0.55469 0.35938 1.0312z"/>
  </symbol>
  <symbol id="c" overflow="visible">
   <path d="m1.5-3.8438v0.85938h0.98438v0.67188h-0.98438v1.2812c0 0.13672 0.023438 0.23047 0.078125 0.28125 0.0625 0.042969 0.17578 0.0625 0.34375 0.0625h0.48438v0.6875h-0.8125c-0.38672 0-0.65625-0.078125-0.8125-0.23438s-0.23438-0.42188-0.23438-0.79688v-1.2812h-0.46875v-0.67188h0.46875v-0.85938z"/>
  </symbol>
  <symbol id="e" overflow="visible">
   <path d="m2.5-2.5469v-1.6094h0.95312v4.1562h-0.95312v-0.4375c-0.13672 0.17969-0.28125 0.30859-0.4375 0.39062-0.15625 0.082031-0.33984 0.125-0.54688 0.125-0.375 0-0.68359-0.14453-0.92188-0.4375-0.23047-0.28906-0.34375-0.67188-0.34375-1.1406 0-0.45703 0.11328-0.83203 0.34375-1.125 0.23828-0.28906 0.54688-0.4375 0.92188-0.4375 0.19531 0 0.375 0.042969 0.53125 0.125 0.16406 0.085938 0.31641 0.21484 0.45312 0.39062zm-0.64062 1.9375c0.20703 0 0.36328-0.070313 0.46875-0.21875 0.11328-0.15625 0.17188-0.37891 0.17188-0.67188 0-0.28125-0.058594-0.49219-0.17188-0.64062-0.10547-0.15625-0.26172-0.23438-0.46875-0.23438-0.19922 0-0.35547 0.078125-0.46875 0.23438-0.10547 0.14844-0.15625 0.35938-0.15625 0.64062 0 0.29297 0.050781 0.51562 0.15625 0.67188 0.11328 0.14844 0.26953 0.21875 0.46875 0.21875z"/>
  </symbol>
  <symbol id="m" overflow="visible">
   <path d="m2.0469-0.60938c0.20703 0 0.36328-0.070313 0.46875-0.21875 0.11328-0.15625 0.17188-0.37891 0.17188-0.67188 0-0.28125-0.058594-0.49219-0.17188-0.64062-0.10547-0.15625-0.26172-0.23438-0.46875-0.23438-0.19922 0-0.35547 0.078125-0.46875 0.23438-0.10547 0.14844-0.15625 0.35938-0.15625 0.64062 0 0.29297 0.050781 0.51562 0.15625 0.67188 0.11328 0.14844 0.26953 0.21875 0.46875 0.21875zm-0.625-1.9375c0.125-0.17578 0.26562-0.30469 0.42188-0.39062 0.16406-0.082031 0.35156-0.125 0.5625-0.125 0.36328 0 0.66406 0.14844 0.90625 0.4375 0.23828 0.29297 0.35938 0.66797 0.35938 1.125 0 0.46875-0.12109 0.85156-0.35938 1.1406-0.24219 0.29297-0.54297 0.4375-0.90625 0.4375-0.21094 0-0.39844-0.042969-0.5625-0.125-0.15625-0.082031-0.29688-0.21094-0.42188-0.39062v0.4375h-0.96875v-4.1562h0.96875z"/>
  </symbol>
  <symbol id="l" overflow="visible">
   <path d="m0.0625-2.9844h0.95312l0.8125 2.0156 0.6875-2.0156h0.95312l-1.2656 3.2656c-0.125 0.33203-0.27344 0.56641-0.4375 0.70312-0.16797 0.13281-0.39062 0.20312-0.67188 0.20312h-0.54688v-0.64062h0.29688c0.16406 0 0.28516-0.027344 0.35938-0.078125 0.070313-0.054688 0.12891-0.14062 0.17188-0.26562l0.03125-0.09375z"/>
  </symbol>
  <symbol id="k" overflow="visible">
   <path d="m2.9219-0.71875h-1.6094l-0.25 0.71875h-1.0312l1.4688-3.9844h1.2344l1.4688 3.9844h-1.0312zm-1.3594-0.75h1.0938l-0.53125-1.5781z"/>
  </symbol>
  <symbol id="j" overflow="visible">
   <path d="m3.4688-1.8281v1.8281h-0.96875v-1.3906c0-0.25781-0.007812-0.4375-0.015625-0.53125-0.011719-0.10156-0.03125-0.17578-0.0625-0.21875-0.03125-0.0625-0.085937-0.10938-0.15625-0.14062-0.0625-0.039062-0.13281-0.0625-0.20312-0.0625-0.21094 0-0.37109 0.078125-0.48438 0.23438-0.10547 0.15625-0.15625 0.37109-0.15625 0.64062v1.4688h-0.96875v-2.9844h0.96875v0.4375c0.13281-0.17578 0.28516-0.30469 0.45312-0.39062 0.16406-0.082031 0.34375-0.125 0.53125-0.125 0.34375 0 0.60156 0.10938 0.78125 0.32812 0.1875 0.21094 0.28125 0.51172 0.28125 0.90625z"/>
  </symbol>
  <symbol id="i" overflow="visible">
   <path d="m0.45312-2.9844h0.96875v2.9844h-0.96875zm0-1.1719h0.96875v0.78125h-0.96875z"/>
  </symbol>
  <symbol id="u" overflow="visible">
   <path d="m4.0781-0.29688c-0.25 0.125-0.51562 0.21875-0.79688 0.28125-0.27344 0.0625-0.55469 0.09375-0.84375 0.09375-0.66797 0-1.1992-0.17969-1.5938-0.54688-0.38672-0.375-0.57812-0.87891-0.57812-1.5156 0-0.64453 0.19531-1.1484 0.59375-1.5156 0.39453-0.375 0.9375-0.5625 1.625-0.5625 0.26953 0 0.52344 0.027344 0.76562 0.078125 0.23828 0.054687 0.46875 0.125 0.6875 0.21875v0.82812c-0.21875-0.125-0.4375-0.21875-0.65625-0.28125s-0.44531-0.09375-0.67188-0.09375c-0.40625 0-0.72656 0.11719-0.95312 0.34375-0.21875 0.23047-0.32812 0.55859-0.32812 0.98438 0 0.41797 0.10156 0.74219 0.3125 0.96875 0.21875 0.23047 0.52344 0.34375 0.92188 0.34375 0.10156 0 0.20312-0.003906 0.29688-0.015625 0.09375-0.007812 0.17578-0.03125 0.25-0.0625v-0.78125h-0.625v-0.6875h1.5938z"/>
  </symbol>
  <symbol id="t" overflow="visible">
   <path d="m1.4219-0.4375v1.5781h-0.96875v-4.125h0.96875v0.4375c0.125-0.17578 0.26562-0.30469 0.42188-0.39062 0.16406-0.082031 0.35156-0.125 0.5625-0.125 0.36328 0 0.66406 0.14844 0.90625 0.4375 0.23828 0.29297 0.35938 0.66797 0.35938 1.125 0 0.46875-0.12109 0.85156-0.35938 1.1406-0.24219 0.29297-0.54297 0.4375-0.90625 0.4375-0.21094 0-0.39844-0.042969-0.5625-0.125-0.15625-0.082031-0.29688-0.21094-0.42188-0.39062zm0.625-1.9375c-0.19922 0-0.35547 0.078125-0.46875 0.23438-0.10547 0.14844-0.15625 0.35938-0.15625 0.64062 0 0.29297 0.050781 0.51562 0.15625 0.67188 0.11328 0.14844 0.26953 0.21875 0.46875 0.21875 0.20703 0 0.36328-0.070313 0.46875-0.21875 0.11328-0.15625 0.17188-0.37891 0.17188-0.67188 0-0.28125-0.058594-0.49219-0.17188-0.64062-0.10547-0.15625-0.26172-0.23438-0.46875-0.23438z"/>
  </symbol>
  <symbol id="h" overflow="visible">
   <path d="m3.4688-1.8281v1.8281h-0.96875v-1.3906c0-0.25781-0.007812-0.4375-0.015625-0.53125-0.011719-0.10156-0.03125-0.17578-0.0625-0.21875-0.03125-0.0625-0.085937-0.10938-0.15625-0.14062-0.0625-0.039062-0.13281-0.0625-0.20312-0.0625-0.21094 0-0.37109 0.078125-0.48438 0.23438-0.10547 0.15625-0.15625 0.37109-0.15625 0.64062v1.4688h-0.96875v-4.1562h0.96875v1.6094c0.13281-0.17578 0.28516-0.30469 0.45312-0.39062 0.16406-0.082031 0.34375-0.125 0.53125-0.125 0.34375 0 0.60156 0.10938 0.78125 0.32812 0.1875 0.21094 0.28125 0.51172 0.28125 0.90625z"/>
  </symbol>
  <symbol id="g" overflow="visible">
   <path d="m2.875-2.8906v0.76562c-0.125-0.082031-0.25781-0.14453-0.39062-0.1875-0.13672-0.039062-0.27344-0.0625-0.40625-0.0625-0.27344 0-0.48047 0.078125-0.625 0.23438-0.14844 0.15625-0.21875 0.37109-0.21875 0.64062 0 0.28125 0.070313 0.5 0.21875 0.65625 0.14453 0.15625 0.35156 0.23438 0.625 0.23438 0.14453 0 0.28516-0.019531 0.42188-0.0625 0.13281-0.039063 0.25781-0.10938 0.375-0.20312v0.78125c-0.14844 0.0625-0.29688 0.10156-0.45312 0.125-0.15625 0.03125-0.3125 0.046875-0.46875 0.046875-0.54297 0-0.96484-0.13281-1.2656-0.40625-0.30469-0.28125-0.45312-0.67188-0.45312-1.1719 0-0.48828 0.14844-0.86719 0.45312-1.1406 0.30078-0.28125 0.72266-0.42188 1.2656-0.42188 0.15625 0 0.3125 0.015625 0.46875 0.046875 0.15625 0.023437 0.30469 0.0625 0.45312 0.125z"/>
  </symbol>
  <symbol id="s" overflow="visible">
   <path d="m2.4219-4.1562v0.625h-0.51562c-0.13672 0-0.23438 0.027344-0.29688 0.078125-0.054687 0.054687-0.078125 0.13672-0.078125 0.25v0.21875h0.82812v0.67188h-0.82812v2.3125h-0.95312v-2.3125h-0.46875v-0.67188h0.46875v-0.21875c0-0.32031 0.085937-0.5625 0.26562-0.71875 0.1875-0.15625 0.47266-0.23438 0.85938-0.23438z"/>
  </symbol>
  <symbol id="d" overflow="visible">
   <path d="m1.875-2.375c-0.21094 0-0.37109 0.078125-0.48438 0.23438-0.10547 0.14844-0.15625 0.35938-0.15625 0.64062 0 0.29297 0.050781 0.51562 0.15625 0.67188 0.11328 0.14844 0.27344 0.21875 0.48438 0.21875 0.20703 0 0.36719-0.070313 0.48438-0.21875 0.11328-0.15625 0.17188-0.37891 0.17188-0.67188 0-0.28125-0.058594-0.49219-0.17188-0.64062-0.11719-0.15625-0.27734-0.23438-0.48438-0.23438zm0-0.6875c0.51953 0 0.92188 0.14062 1.2031 0.42188 0.28906 0.27344 0.4375 0.65234 0.4375 1.1406 0 0.5-0.14844 0.89062-0.4375 1.1719-0.28125 0.27344-0.68359 0.40625-1.2031 0.40625-0.51172 0-0.91406-0.13281-1.2031-0.40625-0.29297-0.28125-0.4375-0.67188-0.4375-1.1719 0-0.48828 0.14453-0.86719 0.4375-1.1406 0.28906-0.28125 0.69141-0.42188 1.2031-0.42188z"/>
  </symbol>
  <symbol id="r" overflow="visible">
   <path d="m3.2344-2.5c0.11328-0.17578 0.25391-0.3125 0.42188-0.40625 0.16406-0.10156 0.35156-0.15625 0.5625-0.15625 0.33203 0 0.58594 0.10938 0.76562 0.32812 0.1875 0.21094 0.28125 0.51172 0.28125 0.90625v1.8281h-0.96875v-1.5625c0.007813-0.019531 0.015625-0.039062 0.015625-0.0625v-0.10938c0-0.21875-0.03125-0.375-0.09375-0.46875s-0.16406-0.14062-0.29688-0.14062c-0.1875 0-0.33594 0.078125-0.4375 0.23438-0.09375 0.14844-0.14062 0.35938-0.14062 0.64062v1.4688h-0.96875v-1.5625c0-0.33203-0.03125-0.54688-0.09375-0.64062-0.054688-0.09375-0.15234-0.14062-0.29688-0.14062-0.17969 0-0.32031 0.078125-0.42188 0.23438-0.09375 0.14844-0.14062 0.35938-0.14062 0.64062v1.4688h-0.96875v-2.9844h0.96875v0.4375c0.11328-0.17578 0.24219-0.30469 0.39062-0.39062 0.15625-0.082031 0.32812-0.125 0.51562-0.125 0.20703 0 0.39062 0.054688 0.54688 0.15625 0.15625 0.09375 0.27344 0.23047 0.35938 0.40625z"/>
  </symbol>
  <symbol id="q" overflow="visible">
   <path d="m0.5-3.9844h1.1562l1.4375 2.7344v-2.7344h0.98438v3.9844h-1.1562l-1.4375-2.7344v2.7344h-0.98438z"/>
  </symbol>
  <symbol id="p" overflow="visible">
   <path d="m0.42188-1.1719v-1.8125h0.96875v0.29688 0.60938 0.48438c0 0.24219 0.003906 0.41797 0.015625 0.53125 0.007812 0.10547 0.03125 0.17969 0.0625 0.21875 0.039062 0.0625 0.09375 0.11719 0.15625 0.15625 0.0625 0.03125 0.13281 0.046875 0.21875 0.046875 0.19531 0 0.35156-0.078125 0.46875-0.23438 0.11328-0.15625 0.17188-0.36719 0.17188-0.64062v-1.4688h0.95312v2.9844h-0.95312v-0.4375c-0.14844 0.17969-0.30469 0.30859-0.46875 0.39062-0.15625 0.082031-0.33594 0.125-0.53125 0.125-0.34375 0-0.60938-0.10156-0.79688-0.3125-0.17969-0.21875-0.26562-0.53125-0.26562-0.9375z"/>
  </symbol>
  <symbol id="o" overflow="visible">
   <path d="m0.5-3.9844h1.7031c0.50781 0 0.89844 0.11719 1.1719 0.34375 0.26953 0.21875 0.40625 0.53906 0.40625 0.95312 0 0.41797-0.13672 0.74219-0.40625 0.96875-0.27344 0.21875-0.66406 0.32812-1.1719 0.32812h-0.67188v1.3906h-1.0312zm1.0312 0.75v1.1094h0.5625c0.19531 0 0.34766-0.046875 0.45312-0.14062 0.11328-0.10156 0.17188-0.24219 0.17188-0.42188 0-0.17578-0.058594-0.3125-0.17188-0.40625-0.10547-0.09375-0.25781-0.14062-0.45312-0.14062z"/>
  </symbol>
  <symbol id="n" overflow="visible">
   <path d="m0.45312-2.9844h0.96875v2.9375c0 0.39453-0.10156 0.69531-0.29688 0.90625-0.1875 0.21875-0.46484 0.32812-0.82812 0.32812h-0.48438v-0.64062h0.17188c0.17578 0 0.29688-0.042969 0.35938-0.125 0.070312-0.074219 0.10938-0.23047 0.10938-0.46875zm0-1.1719h0.96875v0.78125h-0.96875z"/>
  </symbol>
 </defs>
 <g>
  <path d="m305.13 15.094h89.734c8.5625 0 16.797 3.4141 22.859 9.4727 6.0586 6.0586 9.4688 14.293 9.4688 22.871v182.66c0 5.3672-2.1406 10.531-5.9375 14.328-3.7969 3.793-8.957 5.9375-14.328 5.9375h-5.4023c-0.60547 0-1.0938 0.48828-1.0938 1.0938v42.195h-100.87v-42.195c0-0.60547-0.48828-1.0938-1.0938-1.0938h-5.4023c-5.3711 0-10.531-2.1445-14.328-5.9375-3.7969-3.7969-5.9375-8.9609-5.9375-14.328v-182.66c0-8.5781 3.4102-16.812 9.4688-22.871 6.0625-6.0586 14.297-9.4727 22.859-9.4727zm0 16.406h89.734c4.2188 0 8.2656 1.6836 11.254 4.6719 2.9844 2.9844 4.668 7.0312 4.668 11.266v182.66c0 1.0156-0.40234 2-1.1367 2.7227-0.72266 0.72266-1.707 1.1367-2.7227 1.1367h-19.621c-1.8125 0-3.2812 1.4688-3.2812 3.2812v40.008h-68.055v-40.008c0-1.8125-1.4688-3.2812-3.2812-3.2812h-19.621c-1.0156 0-2-0.41406-2.7227-1.1367-0.73438-0.72266-1.1367-1.707-1.1367-2.7227v-182.66c0-4.2344 1.6836-8.2812 4.668-11.266 2.9883-2.9883 7.0352-4.6719 11.254-4.6719z" fill-rule="evenodd"/>
  <path d="m392.23 275.72h-8.2031v-16.406h22.902c5.3711 0 10.531 2.1328 14.328 5.9297 3.7969 3.8047 5.9375 8.957 5.9375 14.34v232.98c0 8.5781-3.4102 16.812-9.4688 22.871-6.0625 6.0586-14.297 9.4727-22.859 9.4727h-89.734c-8.5625 0-16.797-3.4141-22.859-9.4727-6.0586-6.0586-9.4688-14.293-9.4688-22.871v-232.98c0-5.3828 2.1406-10.535 5.9375-14.34 3.7969-3.7969 8.957-5.9297 14.328-5.9297h22.902v16.406h-22.902c-1.0156 0-2 0.40625-2.7227 1.1289-0.73438 0.71875-1.1367 1.7031-1.1367 2.7344v232.98c0 4.2344 1.6836 8.2812 4.668 11.266 2.9883 2.9883 7.0352 4.6719 11.254 4.6719h89.734c4.2188 0 8.2656-1.6836 11.254-4.6719 2.9844-2.9844 4.668-7.0312 4.668-11.266v-232.98c0-1.0312-0.40234-2.0156-1.1367-2.7344-0.72266-0.72266-1.707-1.1289-2.7227-1.1289z"/>
  <path d="m299.57 280.34c0-2.1758 0.875-4.2656 2.4062-5.8086 1.543-1.5312 3.6328-2.3945 5.7969-2.3945 2.1758 0 4.2656 0.86328 5.8086 2.3945 1.5312 1.543 2.3945 3.6328 2.3945 5.8086v22.18c0 1.8125-1.2188 4.1055-2.7188 5.1211l-27.652 18.703c-1.7969 1.2109-4.0156 1.6719-6.1484 1.2578-2.1328-0.41797-4.0234-1.6641-5.2383-3.4688-1.2266-1.793-1.6758-4.0156-1.2578-6.1484 0.41406-2.1328 1.6523-4.0234 3.457-5.2383l21.34-14.426c1-0.67578 1.8125-2.2031 1.8125-3.4141z"/>
  <path d="m423.59 312.75c1.8047 1.2148 3.0547 3.1055 3.4688 5.2383 0.40625 2.1328-0.042969 4.3555-1.2578 6.1484-1.2266 1.8047-3.1055 3.0508-5.2383 3.4688-2.1445 0.41406-4.3555-0.046874-6.1602-1.2578l-27.652-18.703c-1.5-1.0156-2.7188-3.3086-2.7188-5.1211v-22.18c0-2.1758 0.86328-4.2656 2.4062-5.8086 1.5312-1.5312 3.6211-2.3945 5.7969-2.3945s4.2656 0.86328 5.7969 2.3945c1.543 1.543 2.4062 3.6328 2.4062 5.8086v14.566c0 1.2109 0.8125 2.7383 1.8125 3.4141z"/>
  <path d="m334.92 49.406h30.164c0.72266 0 1.4219 0.29297 1.9375 0.80859 0.50391 0.50391 0.79688 1.2031 0.79688 1.9258 0 0.73047-0.29297 1.4219-0.79688 1.9336-0.51562 0.51562-1.2148 0.80078-1.9375 0.80078h-30.164c-0.72266 0-1.4219-0.28516-1.9375-0.80078-0.50391-0.51172-0.79688-1.2031-0.79688-1.9336 0-0.72266 0.29297-1.4219 0.79688-1.9258 0.51562-0.51562 1.2148-0.80859 1.9375-0.80859z"/>
  <path d="m359.05 57.094c0.73047 0 1.4219 0.29688 1.9336 0.80859 0.51562 0.50391 0.80078 1.2031 0.80078 1.9258 0 0.73438-0.28516 1.4219-0.80078 1.9375-0.51172 0.51172-1.2031 0.79688-1.9336 0.79688h-18.094c-0.73047 0-1.4219-0.28516-1.9336-0.79688-0.51562-0.51562-0.80078-1.2031-0.80078-1.9375 0-0.72266 0.28516-1.4219 0.80078-1.9258 0.51172-0.51172 1.2031-0.80859 1.9336-0.80859z"/>
  <path d="m339.86 328.87h20.281c3.6289 0 7.1172 1.457 9.6875 4.0273 2.5703 2.5703 4.0156 6.0586 4.0156 9.6914v20.266c0 3.6406-1.4453 7.1328-4.0156 9.7031-2.5703 2.5703-6.0586 4.0117-9.6875 4.0117h-20.281c-3.6289 0-7.1172-1.4414-9.6875-4.0117-2.5703-2.5703-4.0156-6.0625-4.0156-9.7031v-20.266c0-3.6328 1.4453-7.1211 4.0156-9.6914 2.5703-2.5703 6.0586-4.0273 9.6875-4.0273zm0 5.4688h20.281c2.1758 0 4.2734 0.875 5.8164 2.418 1.5547 1.543 2.418 3.6445 2.418 5.832v20.266c0 2.1875-0.86328 4.2891-2.418 5.8281-1.543 1.543-3.6406 2.418-5.8164 2.418h-20.281c-2.1758 0-4.2734-0.875-5.8164-2.418-1.5547-1.5391-2.418-3.6406-2.418-5.8281v-20.266c0-2.1875 0.86328-4.2891 2.418-5.832 1.543-1.543 3.6406-2.418 5.8164-2.418z" fill-rule="evenodd"/>
  <path d="m416.76 397.83v0.011719l2.6914-0.46875c-0.89844 0.15234-1.793 0.30469-2.6914 0.45703-4.2422 0.67969-8.4961 1.2695-12.762 1.75-5.6797 0.64844-11.375 1.1719-17.086 1.5781-12.281 0.85156-24.598 1.2656-36.914 1.2578-12.316 0.007813-24.633-0.40625-36.914-1.2578-5.7109-0.40625-11.406-0.92969-17.086-1.5781-5.1719-0.57812-10.324-1.3203-15.453-2.207l-2.7031-0.46094 0.92969-5.3906 2.7031 0.46875c5.0195 0.86328 10.074 1.5859 15.137 2.1562 5.6133 0.64453 11.223 1.1602 16.855 1.5508 12.164 0.84375 24.348 1.2578 36.531 1.25 12.184 0.007813 24.367-0.40625 36.531-1.25 5.6328-0.39062 11.242-0.90625 16.855-1.5508 5.0625-0.57031 10.117-1.293 15.137-2.1562"/>
  <path d="m416.76 421.96v0.011719l2.6914-0.46875c-0.89844 0.15234-1.793 0.30469-2.6914 0.45703zc-4.2422 0.67969-8.4961 1.2695-12.762 1.75-5.6797 0.64453-11.375 1.1719-17.086 1.5742-12.281 0.85547-24.598 1.2695-36.914 1.2578-12.316 0.011719-24.633-0.40234-36.914-1.2578-5.7109-0.40234-11.406-0.92969-17.086-1.5742-5.1719-0.57812-10.324-1.3242-15.453-2.207l-2.7031-0.46094 0.92969-5.3906 2.7031 0.46875c5.0195 0.86328 10.074 1.5859 15.137 2.1562 5.6133 0.64453 11.223 1.1562 16.855 1.5508 12.164 0.84375 24.348 1.2578 36.531 1.2461 12.184 0.011719 24.367-0.40234 36.531-1.2461 5.6328-0.39453 11.242-0.90625 16.855-1.5508 5.0625-0.57031 10.117-1.293 15.137-2.1562" fill-rule="evenodd"/>
  <path d="m416.76 446.09v0.011718l2.6914-0.47266c-0.89844 0.15625-1.793 0.30859-2.6914 0.46094-4.2422 0.67969-8.4961 1.2695-12.762 1.75-5.6797 0.64453-11.375 1.1719-17.086 1.5742-12.281 0.85547-24.598 1.2695-36.914 1.2578-12.316 0.011719-24.633-0.40234-36.914-1.2578-5.7109-0.40234-11.406-0.92969-17.086-1.5742-5.1719-0.57813-10.324-1.3242-15.453-2.2109l-2.7031-0.45703 0.92969-5.3945 2.7031 0.47266c5.0195 0.86328 10.074 1.5859 15.137 2.1523 5.6133 0.64844 11.223 1.1602 16.855 1.5547 12.164 0.84375 24.348 1.2578 36.531 1.2461 12.184 0.011719 24.367-0.40234 36.531-1.2461 5.6328-0.39453 11.242-0.90625 16.855-1.5547 5.0625-0.56641 10.117-1.2891 15.137-2.1523"/>
  <path d="m416.76 470.21v0.011718l2.6914-0.47266c-0.89844 0.16406-1.793 0.30859-2.6914 0.46094-4.2422 0.67578-8.4961 1.2695-12.762 1.75-5.6797 0.65625-11.375 1.168-17.086 1.5742-12.281 0.85156-24.598 1.2695-36.914 1.2578-12.316 0.011719-24.633-0.40625-36.914-1.2578-5.7109-0.40625-11.406-0.91797-17.086-1.5742-5.1719-0.58203-10.324-1.3242-15.453-2.2109l-2.7031-0.45703 0.92969-5.3945 2.7031 0.47266c5.0195 0.86328 10.074 1.5859 15.137 2.1523 5.6133 0.64453 11.223 1.1602 16.855 1.5547 12.164 0.83984 24.348 1.2578 36.531 1.2461 12.184 0.011719 24.367-0.40625 36.531-1.2461 5.6328-0.39453 11.242-0.91016 16.855-1.5547 5.0625-0.56641 10.117-1.2891 15.137-2.1523"/>
  <path d="m416.76 494.34v0.007812l2.6914-0.46875c-0.89844 0.16406-1.793 0.30469-2.6914 0.46094zc-4.2422 0.67578-8.4961 1.2656-12.762 1.75-5.6797 0.65625-11.375 1.168-17.086 1.5742-12.281 0.85156-24.598 1.2695-36.914 1.2578-12.316 0.011719-24.633-0.40625-36.914-1.2578-5.7109-0.40625-11.406-0.91797-17.086-1.5742-5.1719-0.58203-10.324-1.3242-15.453-2.2109l-2.7031-0.46094 0.92969-5.3906 2.7031 0.46875c5.0195 0.86719 10.074 1.5859 15.137 2.1562 5.6133 0.64453 11.223 1.1602 16.855 1.5547 12.164 0.83984 24.348 1.2578 36.531 1.2461 12.184 0.011719 24.367-0.40625 36.531-1.2461 5.6328-0.39453 11.242-0.91016 16.855-1.5547 5.0625-0.57031 10.117-1.2891 15.137-2.1562" fill-rule="evenodd"/>
  <path d="m334.92 514.24h30.164c0.72266 0 1.4219 0.29297 1.9375 0.80859 0.50391 0.51562 0.79688 1.2031 0.79688 1.9258 0 0.73047-0.29297 1.4219-0.79688 1.9336-0.51562 0.51562-1.2148 0.80078-1.9375 0.80078h-30.164c-0.72266 0-1.4219-0.28516-1.9375-0.80078-0.50391-0.51172-0.79688-1.2031-0.79688-1.9336 0-0.72266 0.29297-1.4102 0.79688-1.9258 0.51562-0.51562 1.2148-0.80859 1.9375-0.80859z"/>
  <path d="m329.77 495.03v2.7344h-5.4688v-100.89h5.4688z"/>
  <path d="m375.7 495.03v2.7344h-5.4688v-100.89h5.4688z"/>
  <path d="m302 81.668h96.008c1.8125 0 3.2812 1.4688 3.2812 3.2812v125.78c0 1.8086-1.4688 3.2812-3.2812 3.2812h-96.008c-1.8125 0-3.2812-1.4727-3.2812-3.2812v-125.78c0-1.8125 1.4688-3.2812 3.2812-3.2812z"/>
  <path d="m398.88 337.64c0.72266 0 1.4219 0.29688 1.9375 0.80859 0.51172 0.50391 0.79688 1.2031 0.79688 1.9258 0 0.73438-0.28516 1.4219-0.79688 1.9375-0.51562 0.51172-1.2148 0.79688-1.9375 0.79688h-14.633c-0.72266 0-1.4219-0.28516-1.9375-0.79688-0.51172-0.51562-0.79688-1.2031-0.79688-1.9375 0-0.72266 0.28516-1.4219 0.79688-1.9258 0.51562-0.51172 1.2148-0.80859 1.9375-0.80859z"/>
  <path d="m386.98 364.57v0.76563c0 0.71875-0.28516 1.4219-0.80078 1.9219-0.51172 0.51563-1.2109 0.8125-1.9336 0.8125s-1.4219-0.29687-1.9375-0.8125c-0.51172-0.5-0.79688-1.2031-0.79688-1.9219v-1.6328c0-1.3672 0.54688-2.6797 1.5078-3.6406 0.96484-0.97266 2.2773-1.5078 3.6445-1.5078h9.7969c1.3672 0 2.6797 0.53516 3.6445 1.5078 0.96094 0.96094 1.5078 2.2734 1.5078 3.6406v1.6328c0 0.71875-0.28516 1.4219-0.79688 1.9219-0.51562 0.51563-1.2148 0.8125-1.9375 0.8125s-1.4219-0.29687-1.9336-0.8125c-0.51562-0.5-0.80078-1.2031-0.80078-1.9219v-0.76563c0-0.30469-0.24609-0.54687-0.54688-0.54687h-8.0703c-0.30078 0-0.54688 0.24219-0.54688 0.54687z"/>
  <path d="m393.55 367.46c0 2.6562-3.9844 2.6562-3.9844 0s3.9844-2.6562 3.9844 0"/>
  <path d="m315.75 337.64c0.72266 0 1.4219 0.29688 1.9375 0.80859 0.51172 0.50391 0.79688 1.2031 0.79688 1.9258 0 0.73438-0.28516 1.4219-0.79688 1.9375-0.51562 0.51172-1.2148 0.79688-1.9375 0.79688h-14.633c-0.72266 0-1.4219-0.28516-1.9375-0.79688-0.51172-0.51562-0.79688-1.2031-0.79688-1.9375 0-0.72266 0.28516-1.4219 0.79688-1.9258 0.51562-0.51172 1.2148-0.80859 1.9375-0.80859z"/>
  <path d="m303.86 364.57v0.76563c0 0.71875-0.28516 1.4219-0.80078 1.9219-0.51172 0.51563-1.2109 0.8125-1.9336 0.8125s-1.4219-0.29687-1.9375-0.8125c-0.51172-0.5-0.79688-1.2031-0.79688-1.9219v-1.6328c0-1.3672 0.54688-2.6797 1.5078-3.6406 0.96484-0.97266 2.2773-1.5078 3.6445-1.5078h9.7969c1.3672 0 2.6797 0.53516 3.6445 1.5078 0.96094 0.96094 1.5078 2.2734 1.5078 3.6406v1.6328c0 0.71875-0.28516 1.4219-0.79688 1.9219-0.51562 0.51563-1.2148 0.8125-1.9375 0.8125s-1.4219-0.29687-1.9336-0.8125c-0.51562-0.5-0.80078-1.2031-0.80078-1.9219v-0.76563c0-0.30469-0.24609-0.54687-0.54688-0.54687h-8.0703c-0.30078 0-0.54688 0.24219-0.54688 0.54687z"/>
  <use x="70" y="576.40625" xlink:href="#v"/>
  <use x="74.011719" y="576.40625" xlink:href="#a"/>
  <use x="76.710938" y="576.40625" xlink:href="#b"/>
  <use x="80.417969" y="576.40625" xlink:href="#f"/>
  <use x="84.109375" y="576.40625" xlink:href="#c"/>
  <use x="86.722656" y="576.40625" xlink:href="#b"/>
  <use x="90.433594" y="576.40625" xlink:href="#e"/>
  <use x="96.25" y="576.40625" xlink:href="#m"/>
  <use x="100.167969" y="576.40625" xlink:href="#l"/>
  <use x="105.636719" y="576.40625" xlink:href="#k"/>
  <use x="109.867188" y="576.40625" xlink:href="#j"/>
  <use x="113.761719" y="576.40625" xlink:href="#e"/>
  <use x="117.675781" y="576.40625" xlink:href="#a"/>
  <use x="120.371094" y="576.40625" xlink:href="#i"/>
  <use x="124.152344" y="576.40625" xlink:href="#u"/>
  <use x="128.640625" y="576.40625" xlink:href="#a"/>
  <use x="131.335938" y="576.40625" xlink:href="#f"/>
  <use x="135.027344" y="576.40625" xlink:href="#t"/>
  <use x="138.941406" y="576.40625" xlink:href="#h"/>
  <use x="142.835938" y="576.40625" xlink:href="#i"/>
  <use x="144.710938" y="576.40625" xlink:href="#g"/>
  <use x="70" y="581.875" xlink:href="#s"/>
  <use x="72.378906" y="581.875" xlink:href="#a"/>
  <use x="75.078125" y="581.875" xlink:href="#d"/>
  <use x="78.832031" y="581.875" xlink:href="#r"/>
  <use x="86.4375" y="581.875" xlink:href="#c"/>
  <use x="89.050781" y="581.875" xlink:href="#h"/>
  <use x="92.941406" y="581.875" xlink:href="#b"/>
  <use x="98.554688" y="581.875" xlink:href="#q"/>
  <use x="103.132812" y="581.875" xlink:href="#d"/>
  <use x="106.890625" y="581.875" xlink:href="#p"/>
  <use x="110.785156" y="581.875" xlink:href="#j"/>
  <use x="116.582031" y="581.875" xlink:href="#o"/>
  <use x="120.589844" y="581.875" xlink:href="#a"/>
  <use x="123.285156" y="581.875" xlink:href="#d"/>
  <use x="127.042969" y="581.875" xlink:href="#n"/>
  <use x="128.917969" y="581.875" xlink:href="#b"/>
  <use x="132.625" y="581.875" xlink:href="#g"/>
  <use x="135.867188" y="581.875" xlink:href="#c"/>
 </g>
</svg>
